<?xml version="1.0" encoding="UTF-8" standalone="no"?>
<!DOCTYPE svg PUBLIC "-//W3C//DTD SVG 1.1//EN"
 "http://www.w3.org/Graphics/SVG/1.1/DTD/svg11.dtd">
<!-- Generated by graphviz version 14.0.2 (20251019.1705)
 -->
<!-- Title: C:/Users/salih/OneDrive/Masaüstü/weatherProject/cpp&#45;cmake&#45;ctest&#45;template&#45;main/src/utility/src/mathUtility.cpp Pages: 1 -->
<svg width="197pt" height="232pt"
 viewBox="0.00 0.00 197.00 232.00" xmlns="http://www.w3.org/2000/svg" xmlns:xlink="http://www.w3.org/1999/xlink">
<g id="graph0" class="graph" transform="scale(1 1) rotate(0) translate(4 228)">
<title>C:/Users/salih/OneDrive/Masaüstü/weatherProject/cpp&#45;cmake&#45;ctest&#45;template&#45;main/src/utility/src/mathUtility.cpp</title>
<!-- Node1 -->
<g id="Node000001" class="node">
<title>Node1</title>
<g id="a_Node000001"><a xlink:title="Provides functions for math. utilities.">
<polygon fill="#999999" stroke="#666666" points="167.5,-224 0,-224 0,-168 167.5,-168 167.5,-224"/>
<text xml:space="preserve" text-anchor="start" x="8" y="-210.5" font-family="Helvetica,sans-Serif" font-size="10.00">C:/Users/salih/OneDrive</text>
<text xml:space="preserve" text-anchor="start" x="8" y="-198.5" font-family="Helvetica,sans-Serif" font-size="10.00">/Masaüstü/weatherProject</text>
<text xml:space="preserve" text-anchor="start" x="8" y="-186.5" font-family="Helvetica,sans-Serif" font-size="10.00">/cpp&#45;cmake&#45;ctest&#45;template</text>
<text xml:space="preserve" text-anchor="middle" x="83.75" y="-174.5" font-family="Helvetica,sans-Serif" font-size="10.00">&#45;main/src/utility/src/mathUtility.cpp</text>
</a>
</g>
</g>
<!-- Node2 -->
<g id="Node000002" class="node">
<title>Node2</title>
<g id="a_Node000002"><a xlink:title=" ">
<polygon fill="#e0e0e0" stroke="#999999" points="58.38,-132 13.12,-132 13.12,-112 58.38,-112 58.38,-132"/>
<text xml:space="preserve" text-anchor="middle" x="35.75" y="-118.5" font-family="Helvetica,sans-Serif" font-size="10.00">cstring</text>
</a>
</g>
</g>
<!-- Node1&#45;&gt;Node2 -->
<g id="edge9_Node000001_Node000002" class="edge">
<title>Node1&#45;&gt;Node2</title>
<g id="a_edge9_Node000001_Node000002"><a xlink:title=" ">
<path fill="none" stroke="#63b8ff" d="M65.6,-167.78C59.84,-159.14 53.61,-149.78 48.33,-141.87"/>
<polygon fill="#63b8ff" stroke="#63b8ff" points="51.36,-140.11 42.9,-133.73 45.54,-143.99 51.36,-140.11"/>
</a>
</g>
</g>
<!-- Node3 -->
<g id="Node000003" class="node">
<title>Node3</title>
<g id="a_Node000003"><a xlink:href="$math_utility_8h.html" xlink:title="Provides functions for math. utilities.">
<polygon fill="white" stroke="#666666" points="188.75,-132 76.75,-132 76.75,-112 188.75,-112 188.75,-132"/>
<text xml:space="preserve" text-anchor="middle" x="132.75" y="-118.5" font-family="Helvetica,sans-Serif" font-size="10.00">../header/mathUtility.h</text>
</a>
</g>
</g>
<!-- Node1&#45;&gt;Node3 -->
<g id="edge10_Node000001_Node000003" class="edge">
<title>Node1&#45;&gt;Node3</title>
<g id="a_edge10_Node000001_Node000003"><a xlink:title=" ">
<path fill="none" stroke="#63b8ff" d="M102.27,-167.78C108.15,-159.14 114.52,-149.78 119.91,-141.87"/>
<polygon fill="#63b8ff" stroke="#63b8ff" points="122.72,-143.96 125.45,-133.72 116.93,-140.02 122.72,-143.96"/>
</a>
</g>
</g>
<!-- Node4 -->
<g id="Node000004" class="node">
<title>Node4</title>
<g id="a_Node000004"><a xlink:href="$common_types_8h.html" xlink:title="Provides cross&#45;platform type definitions.">
<polygon fill="white" stroke="#666666" points="176.75,-76 88.75,-76 88.75,-56 176.75,-56 176.75,-76"/>
<text xml:space="preserve" text-anchor="middle" x="132.75" y="-62.5" font-family="Helvetica,sans-Serif" font-size="10.00">commonTypes.h</text>
</a>
</g>
</g>
<!-- Node3&#45;&gt;Node4 -->
<g id="edge11_Node000003_Node000004" class="edge">
<title>Node3&#45;&gt;Node4</title>
<g id="a_edge11_Node000003_Node000004"><a xlink:title=" ">
<path fill="none" stroke="#63b8ff" d="M132.75,-111.59C132.75,-105.01 132.75,-95.96 132.75,-87.73"/>
<polygon fill="#63b8ff" stroke="#63b8ff" points="136.25,-87.81 132.75,-77.81 129.25,-87.81 136.25,-87.81"/>
</a>
</g>
</g>
<!-- Node5 -->
<g id="Node000005" class="node">
<title>Node5</title>
<g id="a_Node000005"><a xlink:title=" ">
<polygon fill="#e0e0e0" stroke="#999999" points="162.12,-20 103.38,-20 103.38,0 162.12,0 162.12,-20"/>
<text xml:space="preserve" text-anchor="middle" x="132.75" y="-6.5" font-family="Helvetica,sans-Serif" font-size="10.00">stdexcept</text>
</a>
</g>
</g>
<!-- Node4&#45;&gt;Node5 -->
<g id="edge12_Node000004_Node000005" class="edge">
<title>Node4&#45;&gt;Node5</title>
<g id="a_edge12_Node000004_Node000005"><a xlink:title=" ">
<path fill="none" stroke="#63b8ff" d="M132.75,-55.59C132.75,-49.01 132.75,-39.96 132.75,-31.73"/>
<polygon fill="#63b8ff" stroke="#63b8ff" points="136.25,-31.81 132.75,-21.81 129.25,-31.81 136.25,-31.81"/>
</a>
</g>
</g>
</g>
</svg>
