<?xml version="1.0" encoding="UTF-8" standalone="no"?>
<!DOCTYPE svg PUBLIC "-//W3C//DTD SVG 1.1//EN"
 "http://www.w3.org/Graphics/SVG/1.1/DTD/svg11.dtd">
<!-- Generated by graphviz version 14.0.2 (20251019.1705)
 -->
<!-- Title: C:/Users/salih/OneDrive/Masaüstü/weatherProject/cpp&#45;cmake&#45;ctest&#45;template&#45;main/src/calculatorapp/src/calculatorapp.cpp Pages: 1 -->
<svg width="412pt" height="268pt"
 viewBox="0.00 0.00 412.00 268.00" xmlns="http://www.w3.org/2000/svg" xmlns:xlink="http://www.w3.org/1999/xlink">

<svg id="main" version="1.1" xmlns="http://www.w3.org/2000/svg" xmlns:xlink="http://www.w3.org/1999/xlink" xml:space="preserve">

<style type="text/css"><![CDATA[
.node, .edge {opacity: 0.7;}
.node.selected, .edge.selected {opacity: 1;}
.edge:hover path { stroke: red; }
.edge:hover polygon { stroke: red; fill: red; }
]]></style>
<script type="application/ecmascript" xlink:href="svg.min.js"/>
<svg id="graph" class="graph">
<g id="graph0" class="graph" transform="scale(1 1) rotate(0) translate(4 264)">
<title>C:/Users/salih/OneDrive/Masaüstü/weatherProject/cpp&#45;cmake&#45;ctest&#45;template&#45;main/src/calculatorapp/src/calculatorapp.cpp</title>
<!-- Node1 -->
<g id="Node000001" class="node">
<title>Node1</title>
<g id="a_Node000001"><a xlink:title="A simple program to demonstrate the usage of the calculator model class.">
<polygon fill="#999999" stroke="#666666" points="248.62,-260 114.88,-260 114.88,-192 248.62,-192 248.62,-260"/>
<text xml:space="preserve" text-anchor="start" x="122.88" y="-246.5" font-family="Helvetica,sans-Serif" font-size="10.00">C:/Users/salih/OneDrive</text>
<text xml:space="preserve" text-anchor="start" x="122.88" y="-234.5" font-family="Helvetica,sans-Serif" font-size="10.00">/Masaüstü/weatherProject</text>
<text xml:space="preserve" text-anchor="start" x="122.88" y="-222.5" font-family="Helvetica,sans-Serif" font-size="10.00">/cpp&#45;cmake&#45;ctest&#45;template</text>
<text xml:space="preserve" text-anchor="start" x="122.88" y="-210.5" font-family="Helvetica,sans-Serif" font-size="10.00">&#45;main/src/calculatorapp/src</text>
<text xml:space="preserve" text-anchor="middle" x="181.75" y="-198.5" font-family="Helvetica,sans-Serif" font-size="10.00">/calculatorapp.cpp</text>
</a>
</g>
</g>
<!-- Node2 -->
<g id="Node000002" class="node">
<title>Node2</title>
<g id="a_Node000002"><a xlink:title=" ">
<polygon fill="#e0e0e0" stroke="#999999" points="53.5,-150 0,-150 0,-130 53.5,-130 53.5,-150"/>
<text xml:space="preserve" text-anchor="middle" x="26.75" y="-136.5" font-family="Helvetica,sans-Serif" font-size="10.00">iostream</text>
</a>
</g>
</g>
<!-- Node1&#45;&gt;Node2 -->
<g id="edge1_Node000001_Node000002" class="edge">
<title>Node1&#45;&gt;Node2</title>
<g id="a_edge1_Node000001_Node000002"><a xlink:title=" ">
<path fill="none" stroke="#63b8ff" d="M120.04,-191.56C97.18,-179.17 72.4,-165.74 54.13,-155.84"/>
<polygon fill="#63b8ff" stroke="#63b8ff" points="55.97,-152.86 45.52,-151.17 52.64,-159.01 55.97,-152.86"/>
</a>
</g>
</g>
<!-- Node3 -->
<g id="Node000003" class="node">
<title>Node3</title>
<g id="a_Node000003"><a xlink:title=" ">
<polygon fill="#e0e0e0" stroke="#999999" points="111.75,-150 71.75,-150 71.75,-130 111.75,-130 111.75,-150"/>
<text xml:space="preserve" text-anchor="middle" x="91.75" y="-136.5" font-family="Helvetica,sans-Serif" font-size="10.00">stack</text>
</a>
</g>
</g>
<!-- Node1&#45;&gt;Node3 -->
<g id="edge2_Node000001_Node000003" class="edge">
<title>Node1&#45;&gt;Node3</title>
<g id="a_edge2_Node000001_Node000003"><a xlink:title=" ">
<path fill="none" stroke="#63b8ff" d="M145.92,-191.56C133.64,-180.09 120.4,-167.74 110.09,-158.11"/>
<polygon fill="#63b8ff" stroke="#63b8ff" points="112.68,-155.75 102.98,-151.48 107.9,-160.86 112.68,-155.75"/>
</a>
</g>
</g>
<!-- Node4 -->
<g id="Node000004" class="node">
<title>Node4</title>
<g id="a_Node000004"><a xlink:title=" ">
<polygon fill="#e0e0e0" stroke="#999999" points="169.75,-150 129.75,-150 129.75,-130 169.75,-130 169.75,-150"/>
<text xml:space="preserve" text-anchor="middle" x="149.75" y="-136.5" font-family="Helvetica,sans-Serif" font-size="10.00">string</text>
</a>
</g>
</g>
<!-- Node1&#45;&gt;Node4 -->
<g id="edge3_Node000001_Node000004" class="edge">
<title>Node1&#45;&gt;Node4</title>
<g id="a_edge3_Node000001_Node000004"><a xlink:title=" ">
<path fill="none" stroke="#63b8ff" d="M169.1,-191.8C165.12,-181.34 160.84,-170.12 157.33,-160.89"/>
<polygon fill="#63b8ff" stroke="#63b8ff" points="160.6,-159.65 153.77,-151.55 154.06,-162.14 160.6,-159.65"/>
</a>
</g>
</g>
<!-- Node5 -->
<g id="Node000005" class="node">
<title>Node5</title>
<g id="a_Node000005"><a xlink:title=" ">
<polygon fill="#e0e0e0" stroke="#999999" points="239.38,-150 188.12,-150 188.12,-130 239.38,-130 239.38,-150"/>
<text xml:space="preserve" text-anchor="middle" x="213.75" y="-136.5" font-family="Helvetica,sans-Serif" font-size="10.00">sstream</text>
</a>
</g>
</g>
<!-- Node1&#45;&gt;Node5 -->
<g id="edge4_Node000001_Node000005" class="edge">
<title>Node1&#45;&gt;Node5</title>
<g id="a_edge4_Node000001_Node000005"><a xlink:title=" ">
<path fill="none" stroke="#63b8ff" d="M194.4,-191.8C198.38,-181.34 202.66,-170.12 206.17,-160.89"/>
<polygon fill="#63b8ff" stroke="#63b8ff" points="209.44,-162.14 209.73,-151.55 202.9,-159.65 209.44,-162.14"/>
</a>
</g>
</g>
<!-- Node6 -->
<g id="Node000006" class="node">
<title>Node6</title>
<g id="a_Node000006"><a xlink:title=" ">
<polygon fill="#e0e0e0" stroke="#999999" points="334.12,-20 275.38,-20 275.38,0 334.12,0 334.12,-20"/>
<text xml:space="preserve" text-anchor="middle" x="304.75" y="-6.5" font-family="Helvetica,sans-Serif" font-size="10.00">stdexcept</text>
</a>
</g>
</g>
<!-- Node1&#45;&gt;Node6 -->
<g id="edge5_Node000001_Node000006" class="edge">
<title>Node1&#45;&gt;Node6</title>
<g id="a_edge5_Node000001_Node000006"><a xlink:title=" ">
<path fill="none" stroke="#63b8ff" d="M219.51,-191.55C229.96,-180.94 240.65,-168.65 248.75,-156 262.55,-134.45 286.63,-65.26 298.19,-30.83"/>
<polygon fill="#63b8ff" stroke="#63b8ff" points="301.4,-32.27 301.24,-21.68 294.76,-30.06 301.4,-32.27"/>
</a>
</g>
</g>
<!-- Node7 -->
<g id="Node000007" class="node">
<title>Node7</title>
<g id="a_Node000007"><a xlink:href="calculator_8h.html" target="_top" xlink:title="Provides functions for math. utilities.">
<polygon fill="white" stroke="#666666" points="403.88,-156 295.62,-156 295.62,-124 403.88,-124 403.88,-156"/>
<text xml:space="preserve" text-anchor="start" x="303.62" y="-142.5" font-family="Helvetica,sans-Serif" font-size="10.00">../../calculator/header</text>
<text xml:space="preserve" text-anchor="middle" x="349.75" y="-130.5" font-family="Helvetica,sans-Serif" font-size="10.00">/calculator.h</text>
</a>
</g>
</g>
<!-- Node1&#45;&gt;Node7 -->
<g id="edge6_Node000001_Node000007" class="edge">
<title>Node1&#45;&gt;Node7</title>
<g id="a_edge6_Node000001_Node000007"><a xlink:title=" ">
<path fill="none" stroke="#63b8ff" d="M248.63,-191.56C268.98,-181.39 290.72,-170.51 308.82,-161.47"/>
<polygon fill="#63b8ff" stroke="#63b8ff" points="310.28,-164.65 317.65,-157.05 307.14,-158.39 310.28,-164.65"/>
</a>
</g>
</g>
<!-- Node8 -->
<g id="Node000008" class="node">
<title>Node8</title>
<g id="a_Node000008"><a xlink:href="common_types_8h.html" target="_top" xlink:title="Provides cross&#45;platform type definitions.">
<polygon fill="white" stroke="#666666" points="391.25,-88 300.25,-88 300.25,-56 391.25,-56 391.25,-88"/>
<text xml:space="preserve" text-anchor="start" x="308.25" y="-74.5" font-family="Helvetica,sans-Serif" font-size="10.00">../../utility/header</text>
<text xml:space="preserve" text-anchor="middle" x="345.75" y="-62.5" font-family="Helvetica,sans-Serif" font-size="10.00">/commonTypes.h</text>
</a>
</g>
</g>
<!-- Node7&#45;&gt;Node8 -->
<g id="edge7_Node000007_Node000008" class="edge">
<title>Node7&#45;&gt;Node8</title>
<g id="a_edge7_Node000007_Node000008"><a xlink:title=" ">
<path fill="none" stroke="#63b8ff" d="M348.82,-123.69C348.39,-116.53 347.86,-107.79 347.36,-99.59"/>
<polygon fill="#63b8ff" stroke="#63b8ff" points="350.86,-99.51 346.76,-89.74 343.88,-99.93 350.86,-99.51"/>
</a>
</g>
</g>
<!-- Node8&#45;&gt;Node6 -->
<g id="edge8_Node000008_Node000006" class="edge">
<title>Node8&#45;&gt;Node6</title>
<g id="a_edge8_Node000008_Node000006"><a xlink:title=" ">
<path fill="none" stroke="#63b8ff" d="M335.19,-55.55C329.79,-47.65 323.18,-37.97 317.5,-29.66"/>
<polygon fill="#63b8ff" stroke="#63b8ff" points="320.56,-27.94 312.03,-21.66 314.78,-31.89 320.56,-27.94"/>
</a>
</g>
</g>
</g>
</svg>
</svg>

<style type='text/css'>
<![CDATA[
[data-mouse-over-selected='false'] { opacity: 0.7; }
[data-mouse-over-selected='true']  { opacity: 1.0; }
]]>
</style>
<script type="application/ecmascript"><![CDATA[
document.addEventListener('DOMContentLoaded', (event) => {
  highlightEdges();
  highlightAdjacentNodes();
});
]]></script>
</svg>
