<?xml version="1.0" encoding="UTF-8" standalone="no"?>
<!DOCTYPE svg PUBLIC "-//W3C//DTD SVG 1.1//EN"
 "http://www.w3.org/Graphics/SVG/1.1/DTD/svg11.dtd">
<!-- Generated by graphviz version 14.0.2 (20251019.1705)
 -->
<!-- Title: C:/Users/salih/OneDrive/Masaüstü/weatherProject/cpp&#45;cmake&#45;ctest&#45;template&#45;main/src/utility/header/mathUtility.h Pages: 1 -->
<svg width="181pt" height="176pt"
 viewBox="0.00 0.00 181.00 176.00" xmlns="http://www.w3.org/2000/svg" xmlns:xlink="http://www.w3.org/1999/xlink">
<g id="graph0" class="graph" transform="scale(1 1) rotate(0) translate(4 172)">
<title>C:/Users/salih/OneDrive/Masaüstü/weatherProject/cpp&#45;cmake&#45;ctest&#45;template&#45;main/src/utility/header/mathUtility.h</title>
<!-- Node1 -->
<g id="Node000001" class="node">
<title>Node1</title>
<g id="a_Node000001"><a xlink:title="Provides functions for math. utilities.">
<polygon fill="#999999" stroke="#666666" points="172.75,-168 0,-168 0,-112 172.75,-112 172.75,-168"/>
<text xml:space="preserve" text-anchor="start" x="8" y="-154.5" font-family="Helvetica,sans-Serif" font-size="10.00">C:/Users/salih/OneDrive</text>
<text xml:space="preserve" text-anchor="start" x="8" y="-142.5" font-family="Helvetica,sans-Serif" font-size="10.00">/Masaüstü/weatherProject</text>
<text xml:space="preserve" text-anchor="start" x="8" y="-130.5" font-family="Helvetica,sans-Serif" font-size="10.00">/cpp&#45;cmake&#45;ctest&#45;template</text>
<text xml:space="preserve" text-anchor="middle" x="86.38" y="-118.5" font-family="Helvetica,sans-Serif" font-size="10.00">&#45;main/src/utility/header/mathUtility.h</text>
</a>
</g>
</g>
<!-- Node2 -->
<g id="Node000002" class="node">
<title>Node2</title>
<g id="a_Node000002"><a xlink:href="common_types_8h.html" target="_top" xlink:title="Provides cross&#45;platform type definitions.">
<polygon fill="white" stroke="#666666" points="130.38,-76 42.38,-76 42.38,-56 130.38,-56 130.38,-76"/>
<text xml:space="preserve" text-anchor="middle" x="86.38" y="-62.5" font-family="Helvetica,sans-Serif" font-size="10.00">commonTypes.h</text>
</a>
</g>
</g>
<!-- Node1&#45;&gt;Node2 -->
<g id="edge1_Node000001_Node000002" class="edge">
<title>Node1&#45;&gt;Node2</title>
<g id="a_edge1_Node000001_Node000002"><a xlink:title=" ">
<path fill="none" stroke="#63b8ff" d="M86.38,-111.78C86.38,-103.82 86.38,-95.25 86.38,-87.76"/>
<polygon fill="#63b8ff" stroke="#63b8ff" points="89.88,-87.99 86.38,-77.99 82.88,-87.99 89.88,-87.99"/>
</a>
</g>
</g>
<!-- Node3 -->
<g id="Node000003" class="node">
<title>Node3</title>
<g id="a_Node000003"><a xlink:title=" ">
<polygon fill="#e0e0e0" stroke="#999999" points="115.75,-20 57,-20 57,0 115.75,0 115.75,-20"/>
<text xml:space="preserve" text-anchor="middle" x="86.38" y="-6.5" font-family="Helvetica,sans-Serif" font-size="10.00">stdexcept</text>
</a>
</g>
</g>
<!-- Node2&#45;&gt;Node3 -->
<g id="edge2_Node000002_Node000003" class="edge">
<title>Node2&#45;&gt;Node3</title>
<g id="a_edge2_Node000002_Node000003"><a xlink:title=" ">
<path fill="none" stroke="#63b8ff" d="M86.38,-55.59C86.38,-49.01 86.38,-39.96 86.38,-31.73"/>
<polygon fill="#63b8ff" stroke="#63b8ff" points="89.88,-31.81 86.38,-21.81 82.88,-31.81 89.88,-31.81"/>
</a>
</g>
</g>
</g>
</svg>
